<?xml version="1.0" encoding="UTF-8"?>
<svg xmlns="http://www.w3.org/2000/svg" viewBox="700 360 290 320">
  <defs>
    <style>
      .cls-1{opacity:.1;}.cls-2{fill:#f46835;}.cls-3{fill:#041619;}.cls-4{fill:#fff;}.cls-5{fill:#fdffff;}.cls-6{fill:#d6f0ff;}.cls-7{fill:#155d77;}.cls-8{fill:#083042;}.cls-9{fill:#4285f4;}.cls-10{fill:#3ddc84;}.cls-11{fill:#3ddb85;}.cls-12{fill:#04dd7b;}.cls-13{fill:#37bf6e;}.cls-14{fill:#3870b2;}.cls-15,.cls-16{mix-blend-mode:multiply;}.cls-17{opacity:.6;}.cls-18{isolation:isolate;}.cls-16{opacity:.7;}
    </style>
  </defs>
  <g class="cls-18">
    <g id="Layer_1">
      <g>
        <path class="cls-8" d="M790.09,551.32c-.57-.97-.96-2.05-1.12-3.19,.16,1.13,.55,2.22,1.12,3.19Z"/>
        <path class="cls-8" d="M789.99,488.21h0c-.54,1.29-.9,2.66-1.04,4.11,.14-1.44,.5-2.82,1.04-4.11Z"/>
        <path class="cls-8" d="M791.48,553.09c.54,.53,1.15,1,1.83,1.38l46.13,26.06-46.13-26.06c-.68-.38-1.29-.85-1.83-1.38Z"/>
        <path class="cls-8" d="M846.53,613.46c-.12,0-.25,.01-.37,.01-3.37,.03-6.76-.82-9.79-2.53l-68.82-38.87c-4.04-2.27-6.55-6.54-6.59-11.17v-79.04c-.03-3.37,.63-6.62,2-9.49l-53.81-30.14c-2.27,4.73-3.37,10.11-3.31,15.69v130.47c.08,7.65,4.22,14.68,10.89,18.44l113.59,64.16c5.01,2.83,10.6,4.22,16.16,4.18v-.09c.13-8.14,.09-40.96,.05-61.61Z"/>
        <path class="cls-11" d="M900.63,486.77h0c-.13-.21-.26-.43-.4-.63-.31-.46-.66-.91-1.02-1.33,.37,.42,.71,.87,1.02,1.33,.14,.21,.27,.42,.4,.63Z"/>
        <path class="cls-11" d="M790.63,486.87c.28-.5,.6-.97,.95-1.42-.35,.45-.67,.93-.95,1.42Z"/>
        <path class="cls-11" d="M843.88,455.17c.31-.02,.62-.04,.93-.04-.31,0-.62,.02-.93,.04Z"/>
        <path class="cls-10" d="M762.96,472.36c1.47-3.08,3.76-5.71,6.88-7.56l64.79-38.22c6.03-3.56,13.49-3.63,19.59-.19l65.49,36.99c2.92,1.65,5.48,3.98,7.35,6.74l.02,.03,52.94-31.61c-3.09-4.55-7.31-8.4-12.13-11.13l-108.11-61.06c-10.06-5.68-22.39-5.57-32.34,.31l-106.94,63.08c-5.14,3.04-8.92,7.38-11.36,12.47l53.81,30.14h0Z"/>
        <path class="cls-11" d="M841.19,455.68c.14-.04,.28-.08,.42-.12-.14,.04-.28,.08-.42,.12Z"/>
        <path class="cls-11" d="M790.23,487.63c.12-.26,.26-.51,.4-.76-.14,.25-.27,.5-.4,.76-.09,.19-.15,.39-.24,.58h0c.08-.19,.15-.39,.24-.58Z"/>
        <path class="cls-9" d="M980.02,438.55l-52.94,31.61c2.03,2.99,3.26,6.47,3.3,10.1v75.22c.06,7-3.61,13.5-9.63,17.06l-64.79,38.22c-2.91,1.72-6.16,2.61-9.43,2.7,.04,20.65,.08,53.47-.05,61.61v.09c5.6-.05,11.18-1.53,16.17-4.48l106.94-63.09c9.95-5.87,16.01-16.6,15.9-28.16v-124.16c-.06-6.01-2.11-11.77-5.48-16.72Z"/>
        <path class="cls-9" d="M901.84,547.41c-.04,.13-.09,.27-.13,.4,.05-.13,.09-.27,.13-.4Z"/>
        <path class="cls-9" d="M901.15,487.7c-.16-.32-.34-.63-.52-.93h0c.18,.3,.36,.61,.52,.93Z"/>
        <path class="cls-9" d="M852.57,580.4l43.43-25.62c.25-.15,.5-.31,.74-.47-.24,.16-.49,.32-.74,.47l-43.43,25.62Z"/>
        <path class="cls-9" d="M901.25,548.94c-.15,.34-.32,.67-.5,.99,.18-.32,.35-.66,.5-.99Z"/>
        <path class="cls-9" d="M898.09,553.24c.64-.57,1.22-1.21,1.73-1.89-.51,.68-1.09,1.31-1.73,1.89Z"/>
        <path class="cls-9" d="M900.75,549.93c-.28,.49-.59,.97-.93,1.42,.34-.45,.65-.93,.93-1.42Z"/>
        <path class="cls-8" d="M846.49,582.2c-.16,0-.33,.02-.49,.02-2.26,.02-4.53-.55-6.56-1.7l-46.13-26.06c-.68-.38-1.29-.85-1.83-1.38-.54-.53-1-1.13-1.39-1.77-.57-.97-.96-2.05-1.12-3.19-.05-.38-.08-.76-.09-1.15v-52.98c0-.57,.02-1.13,.07-1.68,.14-1.44,.5-2.82,1.04-4.11l-12.46-7.67-14.58-8.17c-1.37,2.87-2.04,6.12-2,9.49v79.04c.05,4.63,2.55,8.89,6.59,11.17l68.82,38.87c3.04,1.71,6.42,2.56,9.79,2.53,.12,0,.25-.01,.37-.01-.02-10.08-.04-17.25-.04-17.25v-14.01Z"/>
        <path class="cls-3" d="M846.49,582.2c-.16,0-.33,.02-.49,.02-2.26,.02-4.53-.55-6.56-1.7l-46.13-26.06c-.68-.38-1.29-.85-1.83-1.38-.54-.53-1-1.13-1.39-1.77-.57-.97-.96-2.05-1.12-3.19-.05-.38-.08-.76-.09-1.15v-52.98c0-.57,.02-1.13,.07-1.68,.14-1.44,.5-2.82,1.04-4.11l-12.46-7.67-14.58-8.17c-1.37,2.87-2.04,6.12-2,9.49v79.04c.05,4.63,2.55,8.89,6.59,11.17l68.82,38.87c3.04,1.71,6.42,2.56,9.79,2.53,.12,0,.25-.01,.37-.01-.02-10.08-.04-17.25-.04-17.25v-14.01Z"/>
        <path class="cls-11" d="M919.71,463.39l-65.49-36.99c-6.1-3.44-13.56-3.37-19.59,.19l-64.79,38.22c-3.12,1.84-5.41,4.47-6.88,7.56h0l14.58,8.18,12.46,7.67c.08-.19,.15-.39,.24-.58,.12-.26,.26-.51,.4-.76,.28-.5,.6-.97,.95-1.42,.87-1.13,1.96-2.11,3.27-2.88l43.43-25.62c.93-.55,1.92-.97,2.93-1.27,.14-.04,.28-.08,.42-.12,.75-.2,1.51-.33,2.27-.39,.31-.03,.62-.04,.93-.04,.28,0,.57,0,.85,.02,1.13,.06,2.26,.27,3.35,.63,.82,.27,1.62,.62,2.38,1.05l43.9,24.8c1.47,.83,2.8,1.92,3.9,3.19,.37,.42,.71,.87,1.02,1.33,.14,.21,.27,.42,.4,.63l11.2-7.49,15.26-9.11-.02-.03c-1.87-2.76-4.43-5.09-7.35-6.74Z"/>
        <path class="cls-13" d="M919.71,463.39l-65.49-36.99c-6.1-3.44-13.56-3.37-19.59,.19l-64.79,38.22c-3.12,1.84-5.41,4.47-6.88,7.56h0l14.58,8.18,12.46,7.67c.08-.19,.15-.39,.24-.58,.12-.26,.26-.51,.4-.76,.28-.5,.6-.97,.95-1.42,.87-1.13,1.96-2.11,3.27-2.88l43.43-25.62c.93-.55,1.92-.97,2.93-1.27,.14-.04,.28-.08,.42-.12,.75-.2,1.51-.33,2.27-.39,.31-.03,.62-.04,.93-.04,.28,0,.57,0,.85,.02,1.13,.06,2.26,.27,3.35,.63,.82,.27,1.62,.62,2.38,1.05l43.9,24.8c1.47,.83,2.8,1.92,3.9,3.19,.37,.42,.71,.87,1.02,1.33,.14,.21,.27,.42,.4,.63l11.2-7.49,15.26-9.11-.02-.03c-1.87-2.76-4.43-5.09-7.35-6.74Z"/>
        <path class="cls-9" d="M900.63,486.77c.18,.3,.36,.61,.52,.93,.14,.27,.26,.54,.38,.82,.23,.56,.42,1.13,.57,1.71,.22,.87,.34,1.78,.35,2.69v50.42c.01,1.4-.2,2.77-.61,4.07-.04,.13-.09,.27-.13,.4-.13,.38-.29,.76-.45,1.12-.15,.34-.32,.67-.5,.99-.28,.49-.59,.97-.93,1.42-.51,.68-1.09,1.31-1.73,1.89-.43,.38-.88,.74-1.36,1.07-.24,.16-.49,.32-.74,.47l-43.43,25.62c-1.88,1.11-3.97,1.7-6.08,1.8v14.01s.02,7.18,.04,17.25c3.27-.09,6.52-.98,9.43-2.7l64.79-38.22c6.03-3.56,9.7-10.06,9.63-17.06v-75.22c-.03-3.63-1.27-7.11-3.3-10.1l-15.26,9.11-11.2,7.49Z"/>
        <path class="cls-14" d="M900.63,486.77c.18,.3,.36,.61,.52,.93,.14,.27,.26,.54,.38,.82,.23,.56,.42,1.13,.57,1.71,.22,.87,.34,1.78,.35,2.69v50.42c.01,1.4-.2,2.77-.61,4.07-.04,.13-.09,.27-.13,.4-.13,.38-.29,.76-.45,1.12-.15,.34-.32,.67-.5,.99-.28,.49-.59,.97-.93,1.42-.51,.68-1.09,1.31-1.73,1.89-.43,.38-.88,.74-1.36,1.07-.24,.16-.49,.32-.74,.47l-43.43,25.62c-1.88,1.11-3.97,1.7-6.08,1.8v14.01s.02,7.18,.04,17.25c3.27-.09,6.52-.98,9.43-2.7l64.79-38.22c6.03-3.56,9.7-10.06,9.63-17.06v-75.22c-.03-3.63-1.27-7.11-3.3-10.1l-15.26,9.11-11.2,7.49Z"/>
        <path class="cls-6" d="M841.19,455.68c-1.01,.3-1.99,.72-2.93,1.27l-43.43,25.62,43.43-25.62c.93-.55,1.92-.97,2.93-1.27Z"/>
        <g class="cls-1">
          <path d="M841.19,455.68c-1.01,.3-1.99,.72-2.93,1.27l-43.43,25.62,43.43-25.62c.93-.55,1.92-.97,2.93-1.27Z"/>
        </g>
        <path class="cls-6" d="M899.2,484.81c-1.1-1.27-2.43-2.36-3.9-3.19l-43.9-24.8,43.9,24.8c1.47,.83,2.8,1.92,3.9,3.19Z"/>
        <g class="cls-1">
          <path d="M899.2,484.81c-1.1-1.27-2.43-2.36-3.9-3.19l-43.9-24.8,43.9,24.8c1.47,.83,2.8,1.92,3.9,3.19Z"/>
        </g>
        <path class="cls-6" d="M844.82,455.13c.28,0,.57,0,.85,.02-.28-.02-.57-.02-.85-.02Z"/>
        <g class="cls-1">
          <path d="M844.82,455.13c.28,0,.57,0,.85,.02-.28-.02-.57-.02-.85-.02Z"/>
        </g>
        <path class="cls-6" d="M841.61,455.56c.75-.2,1.51-.33,2.27-.39-.77,.06-1.53,.19-2.27,.39Z"/>
        <g class="cls-1">
          <path d="M841.61,455.56c.75-.2,1.51-.33,2.27-.39-.77,.06-1.53,.19-2.27,.39Z"/>
        </g>
        <path class="cls-6" d="M845.67,455.15c1.13,.06,2.26,.27,3.35,.63-1.09-.36-2.22-.57-3.35-.63Z"/>
        <g class="cls-1">
          <path d="M845.67,455.15c1.13,.06,2.26,.27,3.35,.63-1.09-.36-2.22-.57-3.35-.63Z"/>
        </g>
        <path class="cls-6" d="M901.7,547.81c-.13,.38-.29,.76-.45,1.12,.17-.37,.32-.74,.45-1.12Z"/>
        <g class="cls-1">
          <path d="M901.7,547.81c-.13,.38-.29,.76-.45,1.12,.17-.37,.32-.74,.45-1.12Z"/>
        </g>
        <path class="cls-6" d="M901.52,488.52c.23,.56,.42,1.13,.57,1.71-.15-.58-.34-1.15-.57-1.71Z"/>
        <g class="cls-1">
          <path d="M901.52,488.52c.23,.56,.42,1.13,.57,1.71-.15-.58-.34-1.15-.57-1.71Z"/>
        </g>
        <path class="cls-6" d="M901.84,547.41c.41-1.3,.62-2.67,.61-4.07v0c.01,1.4-.2,2.77-.61,4.07Z"/>
        <g class="cls-1">
          <path d="M901.84,547.41c.41-1.3,.62-2.67,.61-4.07v0c.01,1.4-.2,2.77-.61,4.07Z"/>
        </g>
      </g>
    </g>
  </g>
</svg>
