<svg xmlns="http://www.w3.org/2000/svg" viewBox="20 130 440 440">
  <defs>
    <style>
      .cls-1{fill:none;}
      .cls-2{isolation:isolate;}
      .cls-3{fill:#4285f4;}
      .cls-4{fill:#3ddc84;}
      .cls-5{fill:#37bf6e;}
    </style>
  </defs>
  <title>Android Jetpack</title>
  <g class="cls-2">
    <!-- Main Jetpack icon elements without background circle -->
    <path class="cls-3" d="M93.87,321.19v19a19,19,0,0,1,13.44,32.43c-2.42,2.43-12.86,10.42-26,17.9-17.59,10-27.29,12-31.2,12.38.4-4.34,2.7-13.3,10.48-27.69,8.1-15,17.34-27,19.83-29.47a18.89,18.89,0,0,1,13.44-5.55v-19h0A37.86,37.86,0,0,0,67,332.29c-9.82,9.83-49.16,67.2-31.33,85,3.23,3.22,7.74,4.57,13,4.57,24,0,64-27.85,72-35.9a38,38,0,0,0-26.86-64.81Z"/>
    <path class="cls-3" d="M259,470.59a37.85,37.85,0,0,0-26.85-11.11v19a19,19,0,0,1,13.44,32.43c-2.43,2.43-12.87,10.42-26,17.9-17.59,10-27.29,12-31.2,12.38.4-4.34,2.7-13.3,10.48-27.69,8.1-15,17.34-27,19.84-29.47a18.85,18.85,0,0,1,13.43-5.55v-19h0a37.85,37.85,0,0,0-26.85,11.11c-9.82,9.82-49.16,67.19-31.33,85,3.23,3.22,7.74,4.58,13,4.58,24,0,64-27.86,72-35.91A38,38,0,0,0,259,470.59Z"/>
    <path class="cls-4" d="M382.39,273.41a8.15,8.15,0,1,1,11.53,0,8.16,8.16,0,0,1-11.53,0m-63.75-63.74a8.16,8.16,0,1,1,11.54,0,8.16,8.16,0,0,1-11.54,0m-24,226.27L400,330.51a96.22,96.22,0,0,0,19.16-89.77l31.49-8.43a3.39,3.39,0,1,0-1.76-6.55L417,234.3A102.47,102.47,0,0,0,357.76,175l8.54-31.88a3.39,3.39,0,0,0-6.55-1.76l-8.44,31.49A96.24,96.24,0,0,0,261.53,192L156.11,297.45Z"/>
    <path class="cls-5" d="M137.27,278.62l58.39-58.4,21.11-21.1a37.28,37.28,0,0,1,52.72,52.71L190,331.33h0Z"/>
    <path class="cls-5" d="M312.41,453.74h0l79.5-79.49a37.28,37.28,0,0,0-52.72-52.72l-21.1,21.11L259.69,401Z"/>
    <path class="cls-3" d="M261.77,244.11a37.28,37.28,0,0,0-52.72-52.72L187.94,212.5l-60.72,60.71-11,11a6.7,6.7,0,0,0,0,9.45L159.47,337a6.7,6.7,0,0,0,9.45,0l11-11h0Z"/>
    <path class="cls-3" d="M400,382.34a37.28,37.28,0,0,0-52.72-52.72l-21.11,21.11-60.72,60.71-11,11a6.7,6.7,0,0,0,0,9.45l43.27,43.27a6.72,6.72,0,0,0,9.45,0l11-11h0Z"/>
  </g>
</svg>